<?xml version="1.0" standalone="no"?>
<!DOCTYPE svg PUBLIC "-//W3C//DTD SVG 20010904//EN"
 "http://www.w3.org/TR/2001/REC-SVG-20010904/DTD/svg10.dtd">
<svg version="1.0" xmlns="http://www.w3.org/2000/svg"
 width="200.000000pt" height="200.000000pt" viewBox="0 0 200.000000 200.000000"
 preserveAspectRatio="xMidYMid meet">
<metadata>
Created by potrace 1.11, written by Peter Selinger 2001-2013
</metadata>
<g transform="translate(0.000000,200.000000) scale(0.100000,-0.100000)"
fill="#000000" stroke="none">
<path d="M577 1802 c-14 -15 -17 -41 -17 -145 0 -114 2 -129 20 -147 24 -24
48 -25 78 -4 21 14 22 22 22 148 0 116 -2 135 -18 149 -24 22 -65 21 -85 -1z"/>
<path d="M1376 1804 c-13 -12 -16 -41 -16 -149 0 -127 1 -135 22 -149 30 -21
54 -20 78 4 18 18 20 33 20 148 0 112 -2 131 -18 145 -23 21 -66 22 -86 1z"/>
<path d="M245 1646 c-78 -35 -105 -98 -105 -246 l0 -110 865 0 865 0 0 113 c0
87 -4 121 -19 152 -36 77 -85 105 -187 105 l-64 0 0 -75 c0 -137 -66 -215
-182 -215 -117 0 -186 90 -188 243 l0 47 -215 0 -215 0 0 -75 c0 -85 -14 -128
-56 -167 -73 -68 -188 -64 -256 8 -38 41 -48 75 -48 160 l0 74 -82 0 c-47 -1
-96 -7 -113 -14z"/>
<path d="M140 760 c0 -356 2 -426 15 -457 20 -48 41 -71 87 -94 35 -18 66 -19
527 -19 l490 0 -34 50 c-124 185 -105 401 49 556 158 158 365 174 564 43 l32
-21 0 181 0 181 -865 0 -865 0 0 -420z m738 184 c28 -20 30 -69 3 -84 -12 -6
-107 -10 -239 -10 -198 0 -222 2 -242 18 -28 23 -21 68 13 82 12 5 117 9 232
9 175 1 214 -2 233 -15z m10 -336 c15 -15 15 -61 0 -76 -9 -9 -77 -12 -244
-12 -198 0 -235 2 -248 16 -19 18 -20 38 -6 65 10 18 24 19 248 19 172 0 241
-3 250 -12z"/>
<path d="M1462 789 c-74 -29 -153 -108 -180 -182 -60 -160 7 -328 164 -407 40
-20 64 -25 129 -25 71 0 88 4 147 33 70 34 107 72 149 152 20 37 24 60 24 130
0 74 -4 92 -28 138 -81 155 -248 221 -405 161z m152 -65 c12 -12 16 -36 16
-100 l0 -84 59 0 c63 0 91 -15 91 -50 0 -40 -26 -50 -125 -50 -126 0 -125 -1
-125 154 0 81 4 126 12 134 17 17 54 15 72 -4z"/>
</g>
</svg>
